# xmcd
#
# Track frame offsets:
#	150
#	19516
#	38660
#	57579
#	75807
#	93649
#	113106
#	131416
#	150027
#	168102
#	185735
#	205134
#	215980
#	232206
#
# Disc length: 3318 seconds
#
# Revision: 0
# Processed by: cddbd v1.5.2PL0 Copyright (c) Steve Scherf et al.
# Submitted via: audiograbber 1.83.01
#
DISCID=b20cf40e
DTITLE=Drafi Deutscher - Diesmal Für Immer
DYEAR=1987
DGENRE=Schlager
TTITLE0=Diesmal Für Immer
TTITLE1=Jenseits Von Eden
TTITLE2=Keine Macht
TTITLE3=Mama Leone
TTITLE4=Asche Oder Diamant
TTITLE5=Welche Farbe Hat Die Welt
TTITLE6=Das 11. Gebot
TTITLE7=Herz An Herz Gefühl
TTITLE8=Tränenlos
TTITLE9=Conny Wird Nie Gebor'n
TTITLE10=Stark Sein Und Weinen
TTITLE11=Marmor, Stein Und Eisen Bricht
TTITLE12=Auf Einmal Tut Es Nicht Mehr Weh
TTITLE13=Wie Die Musik
EXTD=
EXTT0=
EXTT1=
EXTT2=
EXTT3=
EXTT4=
EXTT5=
EXTT6=
EXTT7=
EXTT8=
EXTT9=
EXTT10=
EXTT11=
EXTT12=
EXTT13=
PLAYORDER=
